<svg width="318" height="131" viewBox="0 0 318 131" xmlns="http://www.w3.org/2000/svg" xmlns:xlink="http://www.w3.org/1999/xlink"><title>Branding</title><defs><path id="a" d="M317.126 90.616V.064H.874v90.552z"/></defs><g fill="none" fill-rule="evenodd"><mask id="b" fill="#fff"><use xlink:href="#a"/></mask><path d="M28.31 90.616c12.528 0 19.67-5.834 25.056-13.492l-1.378-.972c-5.262 6.32-10.273 9.602-17.539 9.602-13.155 0-19.293-11.425-19.293-25.282 0-16.044 6.89-25.646 16.286-25.646 4.761 0 7.767 2.066 9.647 4.376-1.88.972-4.009 3.646-4.009 7.171 0 4.011 2.881 7.171 8.017 7.171 4.511 0 7.141-3.282 7.141-7.779 0-5.591-6.639-13.127-21.172-13.127C14.028 32.638.874 44.793.874 62.66c0 16.409 10.774 27.956 27.436 27.956zm56.65-.122c8.268 0 15.41-4.497 20.796-13.248v12.398h21.924v-1.337c-7.14-.243-9.02-1.459-9.02-4.619v-50.32l-22.174.607v1.459c7.141.121 9.02 2.188 9.02 5.834v33.061c-3.257 6.199-7.642 9.967-13.154 9.967-7.517 0-10.148-4.741-10.148-13.492V33.368l-22.3.486v1.458c7.266.122 9.146 2.31 9.146 5.956v32.21c0 11.425 6.138 17.016 15.91 17.016zm76.358 0h4.76l19.42-44.972c2.755-6.442 6.764-9.845 11.148-10.453v-1.458h-22.8v1.458c6.138.851 9.02 2.553 9.02 6.321 0 1.701-.877 4.375-2.13 7.535l-11.4 27.956h-.502L155.43 42.727c-.502-1.459-.752-2.431-.752-3.404 0-2.431 2.004-3.768 7.391-4.254v-1.458h-30.944v1.458c6.014.729 8.27 2.796 10.9 9.116l19.293 46.309zm66.16.122c12.526 0 19.667-6.32 24.68-14.221l-1.38-.972c-5.136 6.442-9.77 10.331-17.664 10.331-13.154 0-19.669-10.088-19.669-24.188v-3.038h38.461c1.002-14.464-7.642-25.89-24.429-25.89-15.285 0-28.314 12.276-28.314 29.658 0 16.773 11.526 28.32 28.314 28.32zm-.878-55.668c9.395 0 12.527 8.022 11.275 21.392H213.57c.877-13.978 5.513-21.392 13.03-21.392zm-3.258-9.481h1.63l11.525-10.818c4.384-4.254 6.514-6.806 6.514-9.237 0-3.039-2.63-5.348-5.888-5.348-3.884 0-5.512 3.038-7.893 9.967l-5.888 15.436zm69.104 65.149c12.528 0 19.668-6.32 24.68-14.221l-1.378-.972c-5.137 6.442-9.772 10.331-17.665 10.331-13.154 0-19.669-10.088-19.669-24.188v-3.038h38.461c1.002-14.464-7.642-25.89-24.429-25.89-15.284 0-28.314 12.276-28.314 29.658 0 16.773 11.526 28.32 28.314 28.32zm-.877-55.668c9.396 0 12.528 8.022 11.275 21.392H278.54c.877-13.978 5.512-21.392 13.03-21.392z" fill="#FEFEFE" mask="url(#b)"/><path d="M57.336 130.059h3.172v-7.131h9.104v-2.803h-9.104v-4.78h10.265v-2.802H57.336v17.516zm21.757 0h3.172v-17.516h-3.172v17.516zm13.065 0h3.12v-12.461l9.956 12.46h2.657v-17.515h-3.121v12.11l-9.672-12.11h-2.94v17.516zm25.587 0h13.515v-2.752h-10.343v-4.705h9.053v-2.752h-9.053v-4.554h10.214v-2.753h-13.386v17.516zm40.234.125h2.733l4.436-12.586 4.436 12.586h2.76l6.267-17.641h-3.327l-4.307 12.987-4.436-13.037h-2.682l-4.436 13.037-4.307-12.987h-3.43l6.293 17.64zm28.816-.125h3.172v-17.516h-3.172v17.516zm13.065 0h3.12v-12.461l9.956 12.46h2.656v-17.515h-3.12v12.11l-9.672-12.11h-2.94v17.516zm25.587 0h13.514v-2.752h-10.342v-4.705h9.053v-2.752h-9.053v-4.554h10.213v-2.753h-13.385v17.516zm28.769.25c3.792 0 6.448-1.952 6.448-5.23v-.05c0-2.902-1.96-4.228-5.777-5.13-3.482-.8-4.307-1.4-4.307-2.752v-.05c0-1.151 1.083-2.076 2.94-2.076 1.65 0 3.276.625 4.9 1.8l1.703-2.326c-1.832-1.426-3.921-2.202-6.551-2.202-3.585 0-6.164 2.077-6.164 5.08v.05c0 3.228 2.166 4.329 6.009 5.229 3.353.75 4.075 1.427 4.075 2.678v.05c0 1.3-1.238 2.202-3.198 2.202-2.218 0-3.972-.826-5.7-2.277l-1.908 2.202c2.166 1.876 4.77 2.802 7.53 2.802z" fill="#FEFEFE"/></g></svg>