<svg width="216" height="89" viewBox="0 0 216 89" xmlns="http://www.w3.org/2000/svg"><title>Page 1</title><path d="M19.43 61.468c8.49 0 13.33-3.954 16.981-9.143l-.934-.659c-3.566 4.284-6.962 6.508-11.887 6.508-8.915 0-13.075-7.743-13.075-17.135 0-10.873 4.67-17.38 11.038-17.38 3.226 0 5.264 1.4 6.537 2.966-1.273.659-2.717 2.47-2.717 4.86 0 2.718 1.953 4.86 5.434 4.86 3.057 0 4.84-2.224 4.84-5.272 0-3.79-4.5-8.896-14.349-8.896C9.751 22.177.836 30.413.836 42.523c0 11.12 7.302 18.945 18.594 18.945zm38.392-.082c5.604 0 10.443-3.047 14.094-8.979v8.403h14.858v-.907c-4.839-.164-6.113-.989-6.113-3.13V22.672l-15.028.412v.988c4.84.082 6.113 1.482 6.113 3.953v22.407c-2.207 4.2-5.179 6.755-8.914 6.755-5.095 0-6.878-3.214-6.878-9.145v-25.37L40.842 23v.987c4.924.082 6.198 1.566 6.198 4.037v21.828c0 7.743 4.16 11.533 10.782 11.533zm51.75 0h3.225l13.16-30.479c1.868-4.364 4.585-6.672 7.556-7.084v-.988h-15.452v.988c4.16.578 6.113 1.73 6.113 4.285 0 1.152-.594 2.965-1.443 5.107l-7.726 18.945h-.34l-9.085-23.146c-.339-.99-.509-1.648-.509-2.308 0-1.646 1.358-2.552 5.01-2.883v-.988H89.108v.988c4.075.495 5.604 1.895 7.387 6.178l13.075 31.385zm44.835.082c8.491 0 13.33-4.283 16.726-9.638l-.934-.658c-3.48 4.366-6.622 7.002-11.97 7.002-8.916 0-13.33-6.837-13.33-16.392v-2.06h26.064c.68-9.803-5.179-17.546-16.556-17.546-10.358 0-19.188 8.32-19.188 20.1 0 11.367 7.811 19.192 19.188 19.192zm-.594-37.727c6.368 0 8.49 5.438 7.641 14.498h-16.47c.593-9.472 3.735-14.497 8.83-14.497zm-2.208-6.424h1.104l7.811-7.332c2.972-2.883 4.415-4.612 4.415-6.26 0-2.06-1.783-3.625-3.99-3.625-2.632 0-3.736 2.06-5.349 6.754l-3.99 10.463zm46.833 44.151c8.49 0 13.33-4.283 16.726-9.638l-.934-.658c-3.48 4.366-6.623 7.002-11.972 7.002-8.915 0-13.33-6.837-13.33-16.392v-2.06h26.066c.68-9.803-5.179-17.546-16.556-17.546-10.359 0-19.189 8.32-19.189 20.1 0 11.367 7.812 19.192 19.19 19.192zm-.595-37.727c6.368 0 8.491 5.438 7.642 14.498h-16.472c.595-9.472 3.736-14.497 8.83-14.497zM39.101 88.2h2.15v-4.834h6.17v-1.899h-6.17v-3.239h6.956v-1.9h-9.106V88.2zm14.745 0h2.15V76.327h-2.15V88.2zm8.854 0h2.115v-8.446l6.747 8.445h1.8V76.33h-2.115v8.207l-6.554-8.208H62.7V88.2zm17.341 0h9.16v-1.866h-7.01v-3.188h6.135V81.28h-6.135v-3.086h6.921v-1.866h-9.07V88.2zm27.267.084h1.852l3.007-8.53 3.006 8.53h1.87l4.248-11.956h-2.255l-2.919 8.802-3.007-8.835h-1.817l-3.007 8.835-2.919-8.802h-2.324l4.265 11.956zm19.528-.085h2.15V76.33h-2.15V88.2zm8.855 0h2.115v-8.445l6.747 8.445h1.8V76.33h-2.115v8.207l-6.554-8.208h-1.993V88.2zm17.341 0h9.158v-1.865h-7.009v-3.188h6.135V81.28h-6.135v-3.086h6.922v-1.866h-9.07V88.2zm19.497.17c2.57 0 4.37-1.323 4.37-3.545v-.034c0-1.967-1.329-2.865-3.916-3.476-2.359-.543-2.918-.95-2.918-1.865v-.034c0-.78.734-1.408 1.992-1.408 1.12 0 2.22.424 3.321 1.221l1.154-1.577c-1.24-.966-2.657-1.492-4.44-1.492-2.429 0-4.177 1.407-4.177 3.442v.034c0 2.188 1.468 2.934 4.072 3.544 2.272.51 2.762.967 2.762 1.815v.034c0 .882-.839 1.492-2.168 1.492-1.503 0-2.69-.559-3.862-1.543l-1.294 1.492a7.67 7.67 0 0 0 5.104 1.9z" fill="#FEFEFE" fill-rule="evenodd"/></svg>